HIERARCHY
ROOT Hips
{
  OFFSET 5.84602e-005 68.8428 3.50346
  CHANNELS 6 Xposition Yposition Zposition Zrotation Xrotation Yrotation
  JOINT Spine
  {
    OFFSET 0 8.597 -4.6522
    CHANNELS 3 Zrotation Xrotation Yrotation
    JOINT Spine1
    {
      OFFSET 0 7.8454 0.4098
      CHANNELS 3 Zrotation Xrotation Yrotation
      JOINT Spine2
      {
        OFFSET 0 9.7078 -2.1609
        CHANNELS 3 Zrotation Xrotation Yrotation
        JOINT Neck
        {
          OFFSET 0 21.8761 -0.4549
          CHANNELS 3 Zrotation Xrotation Yrotation
          JOINT Head
          {
            OFFSET 0 12.3537 3.3602
            CHANNELS 3 Zrotation Xrotation Yrotation
            End Site
            {
              OFFSET 0.0001 18.9506 0.5657
            }
          }
        }
        JOINT LeftShoulder
        {
          OFFSET 2.2086 21.1115 7.2329
          CHANNELS 3 Zrotation Xrotation Yrotation
          JOINT LeftArm
          {
            OFFSET 13.1193 3.0282 -4.8998
            CHANNELS 3 Zrotation Xrotation Yrotation
            JOINT LeftForeArm
            {
              OFFSET 27.4081 -0.0973053 -0.2375
              CHANNELS 3 Zrotation Xrotation Yrotation
              JOINT LeftHand
              {
                OFFSET 22.8641 0.0662994 -0.1369
                CHANNELS 3 Zrotation Xrotation Yrotation
                JOINT LeftHandIndex1
                {
                  OFFSET 8.8614 0.775009 2.4612
                  CHANNELS 3 Zrotation Xrotation Yrotation
                  JOINT LeftHandIndex2
                  {
                    OFFSET 3.3146 -0.808304 0.5841
                    CHANNELS 3 Zrotation Xrotation Yrotation
                    JOINT LeftHandIndex3
                    {
                      OFFSET 2.2628 -0.552002 0.3989
                      CHANNELS 3 Zrotation Xrotation Yrotation
                      End Site
                      {
                        OFFSET 1.6102 -0.4807 0.2612
                      }
                    }
                  }
                }
                JOINT LeftHandMiddle1
                {
                  OFFSET 8.9937 0.895004 0.2143
                  CHANNELS 3 Zrotation Xrotation Yrotation
                  JOINT LeftHandMiddle2
                  {
                    OFFSET 4.0984 0.0113983 -0.0242
                    CHANNELS 3 Zrotation Xrotation Yrotation
                    JOINT LeftHandMiddle3
                    {
                      OFFSET 2.2716 0.00689697 -0.0138001
                      CHANNELS 3 Zrotation Xrotation Yrotation
                      End Site
                      {
                        OFFSET 2.0404 -0.1441 0.0027
                      }
                    }
                  }
                }
                JOINT LeftHandRing1
                {
                  OFFSET 8.5234 0.597198 -2.0164
                  CHANNELS 3 Zrotation Xrotation Yrotation
                  JOINT LeftHandRing2
                  {
                    OFFSET 3.7188 -0.188293 -0.2328
                    CHANNELS 3 Zrotation Xrotation Yrotation
                    JOINT LeftHandRing3
                    {
                      OFFSET 2.1191 -0.106598 -0.1332
                      CHANNELS 3 Zrotation Xrotation Yrotation
                      End Site
                      {
                        OFFSET 1.8737 -0.2304 -0.0886
                      }
                    }
                  }
                }
                JOINT LeftHandPinky1
                {
                  OFFSET 7.9094 -0.601089 -3.4825
                  CHANNELS 3 Zrotation Xrotation Yrotation
                  JOINT LeftHandPinky2
                  {
                    OFFSET 2.2874 -0.477005 -0.6314
                    CHANNELS 3 Zrotation Xrotation Yrotation
                    JOINT LeftHandPinky3
                    {
                      OFFSET 1.6774 -0.349396 -0.4633
                      CHANNELS 3 Zrotation Xrotation Yrotation
                      End Site
                      {
                        OFFSET 1.4888 -0.4091 -0.3416
                      }
                    }
                  }
                }
                JOINT LeftHandThumb1
                {
                  OFFSET 1.833 -1.3875 1.3896
                  CHANNELS 3 Zrotation Xrotation Yrotation
                  JOINT LeftHandThumb2
                  {
                    OFFSET 3.4129 -1.121 2.5732
                    CHANNELS 3 Zrotation Xrotation Yrotation
                    JOINT LeftHandThumb3
                    {
                      OFFSET 2.2474 -0.804199 1.6192
                      CHANNELS 3 Zrotation Xrotation Yrotation
                      End Site
                      {
                        OFFSET 1.6527 -0.5689 1.1317
                      }
                    }
                  }
                }
              }
            }
          }
        }
        JOINT RightShoulder
        {
          OFFSET -2.2086 21.1115 7.2329
          CHANNELS 3 Zrotation Xrotation Yrotation
          JOINT RightArm
          {
            OFFSET -13.1216 3.0287 -4.9007
            CHANNELS 3 Zrotation Xrotation Yrotation
            JOINT RightForeArm
            {
              OFFSET -27.4081 -0.0973053 -0.2375
              CHANNELS 3 Zrotation Xrotation Yrotation
              JOINT RightHand
              {
                OFFSET -22.8641 0.0664063 -0.1369
                CHANNELS 3 Zrotation Xrotation Yrotation
                JOINT RightHandIndex1
                {
                  OFFSET -8.8614 0.774994 2.4612
                  CHANNELS 3 Zrotation Xrotation Yrotation
                  JOINT RightHandIndex2
                  {
                    OFFSET -3.3146 -0.808304 0.5841
                    CHANNELS 3 Zrotation Xrotation Yrotation
                    JOINT RightHandIndex3
                    {
                      OFFSET -2.2628 -0.552002 0.3989
                      CHANNELS 3 Zrotation Xrotation Yrotation
                      End Site
                      {
                        OFFSET -1.6102 -0.4807 0.2612
                      }
                    }
                  }
                }
                JOINT RightHandMiddle1
                {
                  OFFSET -8.9937 0.894989 0.2143
                  CHANNELS 3 Zrotation Xrotation Yrotation
                  JOINT RightHandMiddle2
                  {
                    OFFSET -4.0984 0.0113983 -0.0242
                    CHANNELS 3 Zrotation Xrotation Yrotation
                    JOINT RightHandMiddle3
                    {
                      OFFSET -2.2716 0.00691223 -0.0138001
                      CHANNELS 3 Zrotation Xrotation Yrotation
                      End Site
                      {
                        OFFSET -2.0404 -0.1441 0.0027
                      }
                    }
                  }
                }
                JOINT RightHandRing1
                {
                  OFFSET -8.5234 0.597198 -2.0164
                  CHANNELS 3 Zrotation Xrotation Yrotation
                  JOINT RightHandRing2
                  {
                    OFFSET -3.7188 -0.188309 -0.2328
                    CHANNELS 3 Zrotation Xrotation Yrotation
                    JOINT RightHandRing3
                    {
                      OFFSET -2.1191 -0.106598 -0.1332
                      CHANNELS 3 Zrotation Xrotation Yrotation
                      End Site
                      {
                        OFFSET -1.8737 -0.2304 -0.0886
                      }
                    }
                  }
                }
                JOINT RightHandPinky1
                {
                  OFFSET -7.9094 -0.601105 -3.4825
                  CHANNELS 3 Zrotation Xrotation Yrotation
                  JOINT RightHandPinky2
                  {
                    OFFSET -2.2874 -0.477005 -0.6314
                    CHANNELS 3 Zrotation Xrotation Yrotation
                    JOINT RightHandPinky3
                    {
                      OFFSET -1.6774 -0.349396 -0.4633
                      CHANNELS 3 Zrotation Xrotation Yrotation
                      End Site
                      {
                        OFFSET -1.4888 -0.4091 -0.3416
                      }
                    }
                  }
                }
                JOINT RightHandThumb1
                {
                  OFFSET -1.833 -1.38751 1.3896
                  CHANNELS 3 Zrotation Xrotation Yrotation
                  JOINT RightHandThumb2
                  {
                    OFFSET -3.41299 -1.12099 2.5732
                    CHANNELS 3 Zrotation Xrotation Yrotation
                    JOINT RightHandThumb3
                    {
                      OFFSET -2.24741 -0.804108 1.6192
                      CHANNELS 3 Zrotation Xrotation Yrotation
                      End Site
                      {
                        OFFSET -1.6527 -0.5689 1.1317
                      }
                    }
                  }
                }
              }
            }
          }
        }
      }
    }
  }
  JOINT RightUpLeg
  {
    OFFSET -9.1966 3.8861 -0.7581
    CHANNELS 3 Zrotation Xrotation Yrotation
    JOINT RightLeg
    {
      OFFSET -0.7359 -41.0265 0
      CHANNELS 3 Zrotation Xrotation Yrotation
      JOINT RightFoot
      {
        OFFSET 0 -40.2855 0
        CHANNELS 3 Zrotation Xrotation Yrotation
        JOINT RightToeBase
        {
          OFFSET 0 -5.6122 11.7359
          CHANNELS 3 Zrotation Xrotation Yrotation
          End Site
          {
            OFFSET 0 0 7.8731
          }
        }
      }
    }
  }
  JOINT LeftUpLeg
  {
    OFFSET 9.1965 3.8864 -0.7581
    CHANNELS 3 Zrotation Xrotation Yrotation
    JOINT LeftLeg
    {
      OFFSET 0.7359 -41.0268 0
      CHANNELS 3 Zrotation Xrotation Yrotation
      JOINT LeftFoot
      {
        OFFSET 0 -40.2855 0
        CHANNELS 3 Zrotation Xrotation Yrotation
        JOINT LeftToeBase
        {
          OFFSET 0 -5.6122 11.7359
          CHANNELS 3 Zrotation Xrotation Yrotation
          End Site
          {
            OFFSET 0 0 7.8731
          }
        }
      }
    }
  }
}
MOTION
Frames:	4
Frame Time:	0.0333333
5.84602e-005 68.8428 3.50346 0 0 -0 0 0 -0 0 0 -0 0 0 -0 0 0 -0 0 0 -0 0 0 -0 0 0 -0 0 0 -0 0 0 -0 0 0 -0 0 0 -0 0 0 -0 0 0 -0 -0.0146107 -8.87603e-005 -2.63497e-007 2.99804e-018 -2.42657e-020 -1.42182e-022 0 0 -0 -0.0187562 -0.001176 5.858e-005 5.06224e-018 3.88251e-019 1.21329e-020 0 0 -0 -0.012269 -0.00324817 0.000675346 -1.74678e-018 3.88251e-019 -0 0 0 -0 0 0 -0 0 0 -0 0 0 -0 0 0 -0 0 0 -0 0 0 -0 0 0 -0 0 0 -0 0 0 -0 0 0 -0 0.0149955 -9.10982e-005 2.64101e-007 -9.69331e-018 1.21329e-020 -4.7394e-023 0 0 -0 0.0189956 -0.00119102 -5.96516e-005 -5.41541e-019 0 2.42657e-020 0 0 -0 0.0122698 -0.00324857 -0.000673756 -2.00796e-019 0 -1.94126e-019 0 0 -0 0 0 -0 0 0 -0 3.39842 1.33031 -0.0637918 -5.65207e-008 0.834868 -0.000436188 -3.39935 -2.16518 -0.0642563 -8.89002e-024 -1.18485e-023 -1.48106e-024 -3.39844 1.35642 0.0640283 -3.18788e-007 0.782166 -0.000588827 3.39931 -2.13858 0.0634662 1.1399e-023 0 -0 
-1.97084 41.6057 -15.0749 -0 -6.6708 -0 0.0348183 10.3875 -0.109952 0.0926511 20.7749 -0.232337 0.0926512 20.7749 -0.232337 0.352256 21.4819 -0.173678 3.36616 -5.02091 0.391276 8.11058 8.30877 -27.9856 -28.4762 -37.6789 -11.1639 31.627 -1.34944 -91.7112 -2.83282 -20.7802 -13.6391 -7.18759e-007 3.97274e-007 2.29426e-007 3.5938e-007 -1.98637e-007 -1.14713e-007 -7.18759e-007 3.97274e-007 2.29426e-007 -7.18759e-007 3.97274e-007 2.29426e-007 -0.0146058 -8.73058e-005 -5.58025e-007 -7.18765e-007 3.97245e-007 2.29477e-007 -7.18759e-007 3.97274e-007 2.29426e-007 -0.0187462 -0.00117314 5.56504e-005 -7.18764e-007 3.97236e-007 2.29498e-007 -7.18759e-007 3.97274e-007 2.29426e-007 -0.0123174 -0.00325934 0.000676329 -7.18755e-007 3.97252e-007 2.29489e-007 -7.18759e-007 3.97274e-007 2.29426e-007 3.5938e-007 -1.98637e-007 -1.14713e-007 -7.18759e-007 3.97274e-007 2.29426e-007 -0.558311 11.0008 12.883 57.7151 -28.1744 36.3421 32.0163 40.5735 24.9823 12.1542 -5.79806 -16.2831 -5.59467e-007 1.2884e-006 8.92603e-007 1.07302e-006 3.55757e-007 3.04835e-006 6.14267e-007 -1.09255e-006 3.55152e-006 -5.59467e-007 1.2884e-006 8.92603e-007 0.0149748 -8.7383e-005 -4.35457e-007 -5.59516e-007 1.28852e-006 8.92435e-007 -5.59467e-007 1.2884e-006 8.92603e-007 0.0189939 -0.00119073 -6.51848e-005 6.16184e-007 -1.09208e-006 3.55169e-006 -5.59467e-007 1.2884e-006 8.92603e-007 0.0122746 -0.00325003 -0.000673738 6.15589e-007 -1.09249e-006 3.55156e-006 -5.59467e-007 1.2884e-006 8.92603e-007 1.07302e-006 3.55757e-007 3.04835e-006 6.14267e-007 -1.09255e-006 3.55152e-006 -8.63172 0.437076 -6.80933 -5.24099 74.4402 8.80755 -16.022 37.6751 -0.612108 -3.38671e-007 -5.50819e-008 2.5371e-007 7.73189 0.963051 6.72345 4.81252 74.2963 -8.29824 15.4534 37.8196 1.52115 3.39595e-007 -5.39695e-008 -2.52712e-007 
-2.85852 29.2273 -23.5742 -0 -9.67266 -0 0.063831 15.0955 -0.178112 0.188795 30.1907 -0.396296 0.188795 30.1907 -0.396296 0.560171 31.1485 -0.273809 4.90505 -7.42069 0.581068 14.4104 9.97603 -40.7274 -49.1 -53.3964 -21.7784 36.8564 -34.6725 -118.398 -7.70452 -29.4611 -21.0787 -9.54166e-015 -6.36111e-015 6.36111e-015 3.18055e-015 3.18055e-015 3.18055e-015 3.18055e-015 0 9.54166e-015 -9.54166e-015 -6.36111e-015 6.36111e-015 -0.0146064 -8.9507e-005 -3.49801e-007 -4.99908e-007 4.86753e-007 -1.22901e-007 -9.54166e-015 -6.36111e-015 6.36111e-015 -0.018791 -0.00117921 5.93823e-005 -4.77083e-015 6.36111e-015 3.18055e-015 -9.54166e-015 -6.36111e-015 6.36111e-015 -0.0122726 -0.00325371 0.000675921 -3.18055e-015 0 -1.27222e-014 -9.54166e-015 -6.36111e-015 6.36111e-015 3.18055e-015 3.18055e-015 3.18055e-015 3.18055e-015 0 9.54166e-015 -2.5888 15.2102 18.7017 95.1425 -31.5739 57.0575 29.426 52.43 48.9875 16.0035 -8.14487 -24.3925 1.78706e-006 1.94922e-006 1.63781e-007 -1.7116e-006 1.45407e-007 -1.17241e-006 1.78706e-006 1.94922e-006 1.63781e-007 1.78706e-006 1.94922e-006 1.63781e-007 0.0150017 -8.95201e-005 -1.64525e-007 1.78906e-006 1.94923e-006 1.63525e-007 1.78706e-006 1.94922e-006 1.63781e-007 0.0189973 -0.00119072 -6.12394e-005 1.78959e-006 1.94909e-006 1.63432e-007 1.78706e-006 1.94922e-006 1.63781e-007 0.012282 -0.00324985 -0.000674938 3.62063e-007 5.42841e-007 -1.55169e-006 1.78706e-006 1.94922e-006 1.63781e-007 -1.7116e-006 1.45407e-007 -1.17241e-006 1.78706e-006 1.94922e-006 1.63781e-007 -13.9214 -0.0247602 -10.3836 -158.765 72.5604 162.137 -20.5467 57.0921 -2.07764 -4.11461e-007 -6.27636e-008 9.38681e-008 12.5841 0.757125 10.2737 159.128 72.8516 -162.441 18.8786 57.2736 4.04125 -1.0587e-007 -1.31807e-006 3.29744e-007 
-2.66118 31.8277 -21.8876 -0 -9.00558 -0 0.0563963 14.1244 -0.162263 0.163431 28.2485 -0.356519 0.163431 28.2485 -0.356519 0.510613 28.9999 -0.24945 4.56488 -7.1998 0.563719 13.3063 8.79624 -37.4686 -43.7315 -50.056 -18.7333 37.2627 -26.3349 -113.044 -6.35203 -28.2445 -18.8509 -3.18055e-015 -3.18055e-015 -3.18055e-015 4.77083e-015 3.18055e-015 -6.36111e-015 7.95139e-015 6.36111e-015 -3.18055e-015 -3.18055e-015 -3.18055e-015 -3.18055e-015 -0.0146333 -9.2862e-005 -8.53893e-007 -1.11319e-014 3.18055e-015 -3.18055e-015 -3.18055e-015 -3.18055e-015 -3.18055e-015 -0.0187255 -0.00117449 5.9085e-005 -3.18055e-015 0 3.18055e-015 -3.18055e-015 -3.18055e-015 -3.18055e-015 -0.0122309 -0.003237 0.000673046 -1.59028e-015 0 3.18055e-015 -3.18055e-015 -3.18055e-015 -3.18055e-015 4.77083e-015 3.18055e-015 -6.36111e-015 7.95139e-015 6.36111e-015 -3.18055e-015 -2.38973 13.6441 16.6245 86.5963 -31.2207 52.1103 31.9553 50.7553 43.9412 13.9815 -7.93098 -24.0456 -3.97569e-015 0 1.59028e-015 3.97569e-015 3.18055e-015 -0 -3.97569e-015 -9.54166e-015 4.77083e-015 -3.97569e-015 0 1.59028e-015 0.0150091 -9.17167e-005 4.70078e-006 1.59028e-015 0 -4.77083e-015 -3.97569e-015 0 1.59028e-015 0.0189937 -0.00119163 -5.93593e-005 6.36111e-015 0 -3.18055e-015 -3.97569e-015 0 1.59028e-015 0.0122879 -0.00325139 -0.000679708 6.36111e-015 3.18055e-015 -1.59028e-015 -3.97569e-015 0 1.59028e-015 3.97569e-015 3.18055e-015 -0 -3.97569e-015 -9.54166e-015 4.77083e-015 -12.7664 -0.24415 -9.56679 -151.98 79.0064 155.478 -19.6814 52.6781 -1.61974 3.04996e-007 2.15548e-006 2.59665e-006 11.5281 0.480691 9.46026 152.315 79.2816 -155.747 18.3669 52.8568 3.24816 2.84351e-007 -7.1731e-008 -1.8665e-006 
